<?xml version="1.0" standalone="no"?>
<!DOCTYPE svg PUBLIC "-//W3C//DTD SVG 20010904//EN"
 "http://www.w3.org/TR/2001/REC-SVG-20010904/DTD/svg10.dtd">
<svg version="1.0" xmlns="http://www.w3.org/2000/svg"
 width="700.000000pt" height="700.000000pt" viewBox="0 0 700.000000 700.000000"
 preserveAspectRatio="xMidYMid meet">
<metadata>
Created by potrace 1.11, written by Peter Selinger 2001-2013
</metadata>
<g transform="translate(0.000000,700.000000) scale(0.100000,-0.100000)"
fill="#000000" stroke="none">
<path d="M0 3500 l0 -3500 1493 0 c1449 1 1490 1 1440 19 -97 33 -156 88 -200
186 -17 38 -18 142 -23 1998 l-5 1959 -27 -71 c-56 -144 -105 -382 -128 -624
-17 -181 -22 -542 -12 -748 12 -221 7 -256 -41 -314 -94 -115 -271 -94 -339
39 -46 90 -51 772 -7 1156 55 497 182 827 393 1028 90 85 184 134 305 156 123
23 1006 23 1118 0 390 -80 617 -478 700 -1224 26 -233 26 -995 0 -1080 -50
-167 -262 -203 -362 -61 l-30 43 0 456 c0 306 -5 495 -13 572 -31 271 -80 498
-136 620 l-25 55 0 -1952 c-1 -1903 -1 -1954 -20 -2003 -36 -96 -118 -171
-211 -196 -36 -10 277 -13 1543 -13 l1587 -1 0 3500 0 3500 -1407 -1 c-1207 0
-1399 -3 -1346 -14 175 -38 324 -164 368 -311 13 -45 19 -51 66 -73 67 -30
128 -92 165 -167 25 -51 29 -70 29 -144 -1 -66 -6 -96 -23 -134 -47 -103 -131
-176 -231 -202 -41 -10 -47 -15 -52 -45 -29 -178 -242 -284 -411 -206 -49 22
-97 63 -132 112 -14 20 -15 20 -43 -6 -63 -60 -177 -97 -262 -85 -99 14 -211
93 -248 177 -14 33 -21 37 -63 43 -63 8 -142 49 -181 94 -136 154 -95 392 82
482 24 13 44 32 50 48 38 107 137 163 240 135 l36 -9 28 53 c33 63 127 154
197 189 28 14 82 34 122 44 70 19 44 19 -1956 19 l-2028 1 0 -3500z m3978
2101 c60 -43 87 -129 61 -198 -15 -40 -67 -91 -107 -104 -104 -34 -222 53
-222 164 0 52 39 119 85 145 52 30 136 27 183 -7z m-373 -271 c35 -21 65 -73
65 -110 0 -37 -30 -89 -65 -110 -65 -40 -156 -15 -189 54 -21 44 -20 73 2 114
37 69 122 92 187 52z m-318 -176 c24 -15 42 -66 35 -101 -6 -31 -47 -70 -80
-76 -44 -8 -91 17 -108 59 -40 96 64 176 153 118z"/>
<path d="M3350 1482 c0 -794 -3 -1177 -11 -1217 -23 -127 -99 -212 -224 -251
-34 -11 9 -13 290 -13 280 0 324 2 290 13 -85 27 -152 83 -193 160 l-27 51 -3
1208 -2 1207 -60 0 -60 0 0 -1158z"/>
</g>
</svg>
